<?xml version="1.0" encoding="UTF-8"?>
<svg width="32px" height="32px" viewBox="0 0 32 32" version="1.1" xmlns="http://www.w3.org/2000/svg" xmlns:xlink="http://www.w3.org/1999/xlink">
    <!-- Generator: Sketch 54.1 (76490) - https://sketchapp.com -->
    <title>Edit</title>
    <desc>Created with Sketch.</desc>
    <g id="Edit" stroke="none" stroke-width="1" fill="none" fill-rule="evenodd">
        <path d="M11.8397732,24 L23.7142857,24 C24.4243661,24 25,24.4477153 25,25 C25,25.5522847 24.4243661,26 23.7142857,26 L8.28571429,26 C7.57563389,26 7,25.5522847 7,25 C7,24.9285537 7.0096334,24.8588574 7.02794506,24.791654 C6.97967745,24.5954875 6.99122511,24.3786458 7.08388908,24.1624299 L9.20520942,19.2126824 C9.29048096,19.0137155 9.42898965,18.8603511 9.59450378,18.7576409 C9.6457745,18.68312 9.70454026,18.6122023 9.77080106,18.5459415 L20.7309562,7.58578644 C21.5120048,6.80473785 22.7783347,6.80473785 23.5593833,7.58578644 L24.9735969,9 C25.7546454,9.78104858 25.7546454,11.0473785 24.9735969,11.8284271 L14.0134417,22.7885822 C13.9471809,22.854843 13.8762633,22.9136088 13.8017424,22.9648795 C13.6990322,23.1303937 13.5456678,23.2689023 13.3467009,23.3541739 L11.8397732,24 Z M12.9527816,21.0208153 L20.3774028,13.5961941 L18.9631892,12.1819805 L11.538568,19.6066017 L12.9527816,21.0208153 Z M21.7916163,12.1819805 L23.5593833,10.4142136 L22.1451697,9 L20.3774028,10.767767 L21.7916163,12.1819805 Z M10.4616677,21.3581285 L9.90697739,22.6524059 L11.2012548,22.0977156 L10.4616677,21.3581285 Z" id="Combined-Shape" fill="#000000" fill-rule="nonzero"></path>
    </g>
</svg>