<?xml version="1.0" encoding="UTF-8"?>
<svg width="32px" height="32px" viewBox="0 0 32 32" version="1.1" xmlns="http://www.w3.org/2000/svg" xmlns:xlink="http://www.w3.org/1999/xlink">
    <!-- Generator: Sketch 54.1 (76490) - https://sketchapp.com -->
    <title>Search</title>
    <desc>Created with Sketch.</desc>
    <g id="Search" stroke="none" stroke-width="1" fill="none" fill-rule="evenodd">
        <path d="M14.5,21 C18.0898509,21 21,18.0898509 21,14.5 C21,10.9101491 18.0898509,8 14.5,8 C10.9101491,8 8,10.9101491 8,14.5 C8,18.0898509 10.9101491,21 14.5,21 Z M14.5,23 C9.80557963,23 6,19.1944204 6,14.5 C6,9.80557963 9.80557963,6 14.5,6 C19.1944204,6 23,9.80557963 23,14.5 C23,19.1944204 19.1944204,23 14.5,23 Z M19.2295145,20.3377087 C18.9234952,20.0316893 18.9234952,19.5355339 19.2295145,19.2295145 C19.5355339,18.9234952 20.0316893,18.9234952 20.3377087,19.2295145 L24.7704855,23.6622913 C25.0765048,23.9683107 25.0765048,24.4644661 24.7704855,24.7704855 C24.4644661,25.0765048 23.9683107,25.0765048 23.6622913,24.7704855 L19.2295145,20.3377087 Z" id="Combined-Shape" fill="#000000" fill-rule="nonzero"></path>
    </g>
</svg>