<svg width="39px" height="39px" viewBox="0 0 58 58" version="1.1" xmlns="http://www.w3.org/2000/svg" xmlns:xlink="http://www.w3.org/1999/xlink">
    <g id="Page-1" stroke="none" stroke-width="1" fill="none" fill-rule="evenodd">
        <g id="100-Basic-Element-Icons-Light" transform="translate(-906.000000, -797.000000)" fill="#FFFFFF">
            <path d="M908.046472,823.204819 L930.158348,823.204819 C931.306368,823.204819 932.204819,822.306368 932.204819,821.158348 L932.204819,799.046472 C932.204819,797.898451 931.306368,797 930.158348,797 L908.046472,797 C906.898451,797 906,797.898451 906,799.046472 L906,821.158348 C906,822.256454 906.948365,823.204819 908.046472,823.204819 L908.046472,823.204819 Z M910.092943,801.092943 L928.111876,801.092943 L928.111876,819.111876 L910.092943,819.111876 L910.092943,801.092943 Z M964,799.046472 L964,821.158348 C964,822.306368 963.101549,823.204819 961.953528,823.204819 L939.841652,823.204819 C938.693632,823.204819 937.795181,822.306368 937.795181,821.158348 L937.795181,799.046472 C937.795181,797.898451 938.693632,797 939.841652,797 L961.953528,797 C963.101549,797 964,797.898451 964,799.046472 Z M959.907057,819.111876 L959.907057,801.092943 L941.888124,801.092943 L941.888124,819.111876 L959.907057,819.111876 Z M908.046472,855 C906.948365,855 906,854.051635 906,852.953528 L906,830.841652 C906,829.693632 906.898451,828.795181 908.046472,828.795181 L930.158348,828.795181 C931.306368,828.795181 932.204819,829.693632 932.204819,830.841652 L932.204819,852.953528 C932.204819,854.101549 931.306368,855 930.158348,855 L908.046472,855 Z M910.092943,832.888124 L910.092943,850.907057 L928.111876,850.907057 L928.111876,832.888124 L910.092943,832.888124 Z M961.953528,828.795181 C963.051635,828.795181 964,829.743546 964,830.841652 L964,852.953528 C964,854.101549 963.101549,855 961.953528,855 L939.841652,855 C938.693632,855 937.795181,854.101549 937.795181,852.953528 L937.795181,830.841652 C937.795181,829.693632 938.693632,828.795181 939.841652,828.795181 L961.953528,828.795181 Z M959.907057,850.907057 L959.907057,832.888124 L941.888124,832.888124 L941.888124,850.907057 L959.907057,850.907057 Z" id="layout"></path>
        </g>
    </g>
</svg>