<?xml version="1.0" encoding="UTF-8"?>
<svg width="34px" height="32px" viewBox="0 0 34 32" version="1.1" xmlns="http://www.w3.org/2000/svg" xmlns:xlink="http://www.w3.org/1999/xlink">
    <g id="Page-1" stroke="none" stroke-width="1" fill="#fff" fill-rule="evenodd">
        <g id="250-icons-48x48px" transform="translate(-263.000000, -474.000000)" fill="#fff">
            <g id="List" transform="translate(263.000000, 474.000000)">
                <path d="M1.72,3.4 L31.72,3.4 C32.5484271,3.4 33.22,2.72842712 33.22,1.9 C33.22,1.07157288 32.5484271,0.4 31.72,0.4 L1.72,0.4 C0.891572875,0.4 0.22,1.07157288 0.22,1.9 C0.22,2.72842712 0.891572875,3.4 1.72,3.4 Z" id="Shape"></path>
                <path d="M1.72,10.4 L20.72,10.4 C21.5484271,10.4 22.22,9.72842712 22.22,8.9 C22.22,8.07157288 21.5484271,7.4 20.72,7.4 L1.72,7.4 C0.891572875,7.4 0.22,8.07157288 0.22,8.9 C0.22,9.72842712 0.891572875,10.4 1.72,10.4 Z" id="Shape"></path>
                <path d="M1.72,17.4 L29.72,17.4 C30.5484271,17.4 31.22,16.7284271 31.22,15.9 C31.22,15.0715729 30.5484271,14.4 29.72,14.4 L1.72,14.4 C0.891572875,14.4 0.22,15.0715729 0.22,15.9 C0.22,16.7284271 0.891572875,17.4 1.72,17.4 Z" id="Shape"></path>
                <path d="M1.72,24.4 L26.72,24.4 C27.5484271,24.4 28.22,23.7284271 28.22,22.9 C28.22,22.0715729 27.5484271,21.4 26.72,21.4 L1.72,21.4 C0.891572875,21.4 0.22,22.0715729 0.22,22.9 C0.22,23.7284271 0.891572875,24.4 1.72,24.4 Z" id="Shape"></path>
                <path d="M31.72,28.4 L1.72,28.4 C0.891572875,28.4 0.22,29.0715729 0.22,29.9 C0.22,30.7284271 0.891572875,31.4 1.72,31.4 L31.72,31.4 C32.5484271,31.4 33.22,30.7284271 33.22,29.9 C33.22,29.0715729 32.5484271,28.4 31.72,28.4 Z" id="Shape"></path>
            </g>
        </g>
    </g>
</svg>