<?xml version="1.0" encoding="UTF-8"?>
<svg width="72px" height="72px" viewBox="0 0 32 32" version="1.1" xmlns="http://www.w3.org/2000/svg" xmlns:xlink="http://www.w3.org/1999/xlink">
    <!-- Generator: Sketch 54.1 (76490) - https://sketchapp.com -->
    <title>File</title>
    <desc>Created with Sketch.</desc>
    <g id="File" stroke="none" stroke-width="1" fill="none" fill-rule="evenodd">
        <path d="M16.0346324,8 L10,8 L10,24 L22,24 L22,14.0019504 L16.9979976,14.0019504 C16.4428484,14.0019504 15.9939557,13.5497554 15.9980245,12.9946211 L16.0346324,8 Z M20.1735233,12.0019504 L18.0211299,9.84955698 L18.005354,12.0019504 L20.1735233,12.0019504 Z M17.0011579,6.00115785 C17.2632187,5.98852916 17.5345121,6.07868057 17.7516773,6.29744927 L23.7077005,12.2974493 C23.9110388,12.5022889 24.0012706,12.7537534 23.9999871,12.9999871 L24,24 C24,25.1045695 23.1045695,26 22,26 L10,26 C8.8954305,26 8,25.1045695 8,24 L8,8 C8,6.8954305 8.8954305,6 10,6 L17,6 L17.0011579,6.00115785 Z" id="Combined-Shape" fill="#000000" fill-rule="nonzero"></path>
    </g>
</svg>